<svg xmlns="http://www.w3.org/2000/svg" xmlns:xlink="http://www.w3.org/1999/xlink" width="60.048" height="49.44" viewBox="0 0 60.048 49.44"><defs><clipPath id="a"><rect width="60.048" height="49.44" fill="none"/></clipPath></defs><g clip-path="url(#a)"><path d="M52.128,154.316h1.558v.645a1.972,1.972,0,0,1-1.729.927,2.183,2.183,0,0,1,0-4.36,1.947,1.947,0,0,1,1.778,1.013l.078.149.843-.6-.075-.117a3.141,3.141,0,1,0,.088,3.331l.02-.034v-1.9h-2.56Z" transform="translate(-37.687 -116.152)" fill="#89264f"/><path d="M89.9,152.856a1.712,1.712,0,0,0-1.938-1.737H84.543v6h1v-2.5h1.984l1.431,2.5h1.12l-1.457-2.56a1.732,1.732,0,0,0,1.278-1.709m-4.356-.786h2.408c.417,0,.913.14.913.807,0,.53-.309.786-.946.786H85.545Z" transform="translate(-65.219 -116.577)" fill="#89264f"/><path d="M121.118,150.572a3.14,3.14,0,1,0,3.114,3.145,3.022,3.022,0,0,0-3.114-3.145m0,5.32a2.183,2.183,0,1,1,2.08-2.174,2.059,2.059,0,0,1-2.08,2.174" transform="translate(-91.039 -116.155)" fill="#89264f"/><path d="M153.761,155.509l-2.112-4.389h-1.1l2.9,6.006h.628l2.908-6.006h-1.109Z" transform="translate(-116.139 -116.578)" fill="#89264f"/><path d="M189.107,154.405h2.29v-.949h-2.29v-1.382h3.784v-.95H188.1v6.006h5.019v-.951h-4.017Z" transform="translate(-145.109 -116.581)" fill="#89264f"/><path d="M3.114,110.74.881,107.361H0v6H.992v-4.128L3.114,112.4l2.123-3.163v4.128h.991v-6H5.356Z" transform="translate(0 -82.821)" fill="#89264f"/><path d="M42.91,111.4V107.36h-1V111.2c0,1.109-.266,1.349-1.5,1.349s-1.5-.24-1.5-1.349V107.36h-1V111.4c0,1.484.748,2.118,2.5,2.118s2.5-.635,2.5-2.118" transform="translate(-29.246 -82.82)" fill="#89264f"/><path d="M76.512,112.416H72.781v-5.055h-1v6h4.733Z" transform="translate(-55.372 -82.821)" fill="#89264f"/><path d="M106.954,111.5a1.8,1.8,0,0,0-.815-1.54,1.385,1.385,0,0,0,.411-1.036c0-.714-.321-1.566-1.851-1.566h-3.528v6h3.707a1.852,1.852,0,0,0,2.075-1.863m-1.938.914h-2.843v-1.849h2.843a.84.84,0,0,1,.9.925.832.832,0,0,1-.9.924m-.255-2.8h-2.588V108.31h2.588c.537,0,.776.2.776.659,0,.43-.261.649-.776.649" transform="translate(-78.046 -82.82)" fill="#89264f"/><path d="M142.834,112.413h-4.017v-1.774h2.29v-.951h-2.29v-1.382H142.6v-.949h-4.786v6h5.019Z" transform="translate(-106.314 -82.818)" fill="#89264f"/><path d="M174.992,113.36l-1.457-2.56a1.733,1.733,0,0,0,1.278-1.709,1.711,1.711,0,0,0-1.938-1.735h-3.42v6h1v-2.5h1.984l1.43,2.5Zm-4.535-5.055h2.408c.417,0,.913.141.913.808,0,.529-.309.786-.946.786h-2.376Z" transform="translate(-130.722 -82.817)" fill="#89264f"/><path d="M239.381,107.36l-1.969,2.185-1.98-2.185h-1.283l2.757,3.054v2.951h1v-2.941l2.769-3.064Z" transform="translate(-180.628 -82.82)" fill="#89264f"/><path d="M208.8,112.751c-.251-.43-.79-1.364-1.126-1.949a1.733,1.733,0,0,0,1.278-1.709,1.711,1.711,0,0,0-1.938-1.735h-3.42v6h1v-2.5h1.986c.208.359,1.042,1.811,1.377,2.383A3.684,3.684,0,0,0,211.447,115v-.976a2.686,2.686,0,0,1-2.647-1.275m-4.2-4.444H207c.417,0,.913.141.913.808,0,.529-.309.786-.946.786H204.6Z" transform="translate(-157.058 -82.819)" fill="#89264f"/><path d="M120.865,26.529l.448-.343a.645.645,0,0,0,.244-.508V24.426a.644.644,0,0,0-.249-.513l-3.1-2.379a1.391,1.391,0,0,0-1.6,0l-3.1,2.379a.644.644,0,0,0-.25.513v1.252a.64.64,0,0,0,.243.507l.45.346a.364.364,0,0,1,0,.607l-.444.339a.647.647,0,0,0-.25.514v1.251a.64.64,0,0,0,.246.508l.45.346a.364.364,0,0,1,0,.608l-.459.352a.647.647,0,0,0-.237.5v1.252a.64.64,0,0,0,.249.511l3.106,2.38a1.388,1.388,0,0,0,1.6,0l3.105-2.379a.64.64,0,0,0,.249-.511V31.558a.645.645,0,0,0-.249-.514l-.445-.343a.363.363,0,0,1,0-.606l.446-.345a.64.64,0,0,0,.249-.511V27.99a.647.647,0,0,0-.249-.514l-.443-.339a.364.364,0,0,1,0-.607m-4.527-3.574.765-.587a.533.533,0,0,1,.61,0l.768.588a.364.364,0,0,1,0,.607l-.766.587a.531.531,0,0,1-.612,0l-.765-.586a.364.364,0,0,1,0-.609m1.377,4.762a.531.531,0,0,1-.612,0l-.765-.586a.364.364,0,0,1,0-.609l.765-.587a.533.533,0,0,1,.61,0l.768.588a.364.364,0,0,1,0,.607Zm.766,2.982-.766.586a.531.531,0,0,1-.612,0l-.765-.586a.364.364,0,0,1,0-.608l.765-.587a.53.53,0,0,1,.61,0l.768.588a.363.363,0,0,1,0,.606m-4.463-5.351a.366.366,0,0,1,0-.611l.764-.587a.533.533,0,0,1,.61,0l.768.589a.36.36,0,0,1,.1.5.355.355,0,0,1-.08.087l-.816.626a.534.534,0,0,1-.586-.019Zm0,3.563a.366.366,0,0,1,0-.611l.764-.586a.536.536,0,0,1,.514-.055l.945.725a.358.358,0,0,1-.051.5l-.031.022-.767.586a.53.53,0,0,1-.611,0Zm1.374,4.154a.532.532,0,0,1-.611,0l-.763-.585a.366.366,0,0,1,0-.611l.764-.587a.537.537,0,0,1,.529-.047l.922.706a.359.359,0,0,1-.033.506.345.345,0,0,1-.04.031Zm3.091,1.2-.766.587a.533.533,0,0,1-.611,0l-.765-.587a.364.364,0,0,1,0-.609l.765-.587a.533.533,0,0,1,.61,0l.767.588a.364.364,0,0,1,0,.607m2.322-2.384a.364.364,0,0,1,0,.606l-.766.586a.531.531,0,0,1-.612,0l-.765-.586a.364.364,0,0,1,0-.6l.775-.594a.53.53,0,0,1,.6,0Zm0-3.569a.364.364,0,0,1,0,.606l-.766.587a.531.531,0,0,1-.612,0l-.765-.586a.36.36,0,0,1-.105-.5.368.368,0,0,1,.059-.07l.859-.659a.534.534,0,0,1,.562.031Zm-.766-2.371a.536.536,0,0,1-.571.027l-.846-.649a.36.36,0,0,1,.041-.571l.765-.587a.53.53,0,0,1,.61,0l.768.588a.364.364,0,0,1,0,.606Z" transform="translate(-87.366 -16.417)" fill="#89264f"/><path d="M129.779,4.275a1.425,1.425,0,0,1,.489.086,2.581,2.581,0,0,1,1.274-2.44c.305-.179.865-.5,1.374-.8V0c-.587.338-1.455.838-1.867,1.079a3.585,3.585,0,0,0-1.756,3.281,1.415,1.415,0,0,1,.487-.085" transform="translate(-99.739)" fill="#89264f"/><path d="M52.528,203.779h-.971v-.3h2.268v.3h-.971v2.58h-.325Z" transform="translate(-39.772 -156.969)" fill="#89264f"/><path d="M64.094,203.479h.325v1.28h1.663v-1.28h.325v2.881h-.325v-1.3H64.419v1.3h-.325Z" transform="translate(-49.444 -156.969)" fill="#89264f"/><path d="M78.224,203.479h2.082v.3H78.549v.984h1.572v.3H78.549v1.008h1.778v.3h-2.1Z" transform="translate(-60.344 -156.969)" fill="#89264f"/><path d="M98.813,203.479h2.07v.3H99.138v1.029h1.56v.3h-1.56v1.255h-.325Z" transform="translate(-76.227 -156.969)" fill="#89264f"/><path d="M109.7,204.76v-.008a1.469,1.469,0,1,1,2.939-.008v.008a1.469,1.469,0,1,1-2.939.008m2.6,0v-.008a1.145,1.145,0,0,0-1.136-1.19,1.132,1.132,0,0,0-1.128,1.181v.008a1.145,1.145,0,0,0,1.136,1.189,1.132,1.132,0,0,0,1.128-1.181" transform="translate(-84.627 -156.802)" fill="#89264f"/><path d="M125.651,203.478h1.239a1.135,1.135,0,0,1,.819.288.8.8,0,0,1,.222.568v.008a.843.843,0,0,1-.782.839l.885,1.177h-.4l-.835-1.12h-.823v1.12h-.325Zm1.21,1.469c.432,0,.741-.222.741-.593v-.008c0-.354-.272-.568-.737-.568h-.889v1.169Z" transform="translate(-96.931 -156.968)" fill="#89264f"/><path d="M139.114,203.479H141.2v.3h-1.757v.984h1.572v.3h-1.572v1.008h1.778v.3h-2.1Z" transform="translate(-107.317 -156.969)" fill="#89264f"/><path d="M150.795,205.8l.2-.239a1.371,1.371,0,0,0,.988.407c.387,0,.642-.206.642-.49v-.008c0-.267-.144-.42-.749-.547-.662-.144-.967-.358-.967-.831v-.008a.851.851,0,0,1,.947-.786,1.5,1.5,0,0,1,1.012.354l-.189.251a1.265,1.265,0,0,0-.832-.313c-.374,0-.613.206-.613.465v.008c0,.272.148.424.782.56s.938.374.938.815v.008c0,.494-.412.815-.984.815a1.685,1.685,0,0,1-1.177-.461" transform="translate(-116.327 -156.83)" fill="#89264f"/><path d="M163.4,203.779h-.971v-.3h2.268v.3h-.971v2.58H163.4Z" transform="translate(-125.298 -156.969)" fill="#89264f"/><rect width="0.325" height="2.881" transform="translate(40.117 46.51)" fill="#89264f"/><path d="M181.3,203.389h.3l1.313,2.9h-.35l-.337-.761h-1.568l-.342.761h-.333Zm.8,1.848-.654-1.469-.659,1.469Z" transform="translate(-138.85 -156.9)" fill="#89264f"/><path d="M194.661,205.8l.2-.239a1.371,1.371,0,0,0,.988.407c.387,0,.642-.206.642-.49v-.008c0-.267-.144-.42-.749-.547-.662-.144-.967-.358-.967-.831v-.008a.851.851,0,0,1,.947-.786,1.5,1.5,0,0,1,1.012.354l-.189.251a1.265,1.265,0,0,0-.832-.313c-.374,0-.613.206-.613.465v.008c0,.272.148.424.782.56s.938.374.938.815v.008c0,.494-.412.815-.984.815a1.686,1.686,0,0,1-1.177-.461" transform="translate(-150.167 -156.83)" fill="#89264f"/></g></svg>