<?xml version="1.0" encoding="utf-8"?>
<!-- Generator: Adobe Illustrator 23.0.1, SVG Export Plug-In . SVG Version: 6.00 Build 0)  -->
<svg version="1.1" id="Isolation_Mode" xmlns="http://www.w3.org/2000/svg" x="0px"
     y="0px" viewBox="0 0 100 100" style="enable-background:new 0 0 100 100;" xml:space="preserve">
<path d="M12.1,15.7c25.4,0,50.8,0,76.2,0c0.2,0.1,0.4,0.3,0.6,0.3c4.7,0.7,6.7,2.9,6.7,7.7c0,17.2,0,34.5,0,51.7
	c0,5.9-2.9,8.8-8.8,8.8c-13.9,0-27.9,0-41.8,0c-10.6,0-21.1,0-31.7-0.1c-5.5,0-8.1-2.2-9-7.4c-0.1-0.7-0.1-1.3-0.1-2
	c0-14.7,0-29.5,0-44.2c0-2.1-0.1-4.3,0-6.4c0.1-2.7,0.4-5.4,3.1-6.8C8.8,16.5,10.5,16.2,12.1,15.7z M11.1,27.7
	c0,0.6-0.1,0.8-0.1,1.1c0,14.2,0,28.4,0,42.5c0,1,0.1,2.1,0.3,3.1c0.6,2.4,2.1,3.6,4.4,3.6c22.6,0.1,45.3,0.2,67.9,0.4
	c4.2,0,5.4-1.2,5.4-5.3c0-14.4-0.1-28.8-0.1-43.3c0-0.5-0.1-1-0.1-1.8c-0.5,0.5-0.8,0.8-1.1,1C77.5,39.3,67.2,49.6,57,59.9
	c-4.6,4.6-8.8,4.6-13.4,0.1C33.3,49.7,23,39.4,12.7,29.2C12.2,28.7,11.8,28.3,11.1,27.7z M16.4,22.5c-0.1,0.2-0.2,0.3-0.3,0.5
	c0.4,0.3,0.9,0.6,1.3,1c8.2,8.1,16.4,16.3,24.5,24.4c1.6,1.6,3.1,3.2,4.7,4.7c2.4,2.2,4.4,2.4,7.1,0.5c0.6-0.5,1.3-1,1.8-1.5
	c9.4-9.4,18.9-18.8,28.3-28.2c0.4-0.4,0.7-0.8,1.1-1.3C61.9,22.5,39.2,22.5,16.4,22.5z"/>
</svg>
