<?xml version="1.0" encoding="utf-8"?>
<!-- Generator: Adobe Illustrator 23.0.1, SVG Export Plug-In . SVG Version: 6.00 Build 0)  -->
<svg version="1.1" id="Isolation_Mode" xmlns="http://www.w3.org/2000/svg" x="0px"
	 y="0px" viewBox="0 0 100 100" style="enable-background:new 0 0 100 100;" xml:space="preserve">
<g>
	<path d="M78,68.5c-6.6,0.1-13.1,0.3-19.7,0.2c-0.8,0-1.7-0.9-2.3-1.6c-3.3-3.8-8-4.3-11.3-1.1c-3.3,3.2-3.3,8,0.1,11.1
		c3.4,3.1,8.2,2.5,11.3-1.2c0.7-0.8,1.9-1.6,2.9-1.7c5.4-0.2,10.9-0.1,16.4-0.1c-1.8,8.4-11.2,16.2-20.8,17.2
		c-1,0.1-1.9,0.4-2.9,0.6c-1.1,0-2.3,0-3.4,0c-1.7-0.3-3.5-0.6-5.2-1c-7.9-1.7-14-6.1-17.5-13.3c-6-12.3-8.2-25.4-4.4-38.7
		C25.3,24.8,39.3,16.6,54.9,19C70,21.2,79.9,34,79.8,46.3c0,7.4-1.3,14.8-1.9,22.2L78,68.5z"/>
	<path d="M77.9,68.6c4.2,0.6,5,0.1,5-4c0-8.3-0.1-16.6-0.3-24.9c-0.3-13.9-11.8-25.8-25.8-26.3c-6.2-0.2-12.6-0.5-18.6,0.8
		C25.3,16.9,17,28,17,41.1c0,6.6,0,13.2,0,20.4c-3-0.4-6.1,0-8.4-1.1c-6.3-3.2-3.6-9.3-4-14.4c-0.2-3.5,1.9-5.6,5.1-6.8
		c0.7-0.3,1.5-0.5,2.2-0.8c2.5-16.2,11.8-26.6,27.4-29.4c8.3-1.5,17.1-1.7,25.3,0.9c13.7,4.3,20.8,14.3,23,28.1
		c7.5,3.7,8.8,6.3,7.8,15.6c-0.5,4.4-2.4,6.5-7.4,7.8c-0.5,3.9,0.6,8.6-3.6,11c-2.2,1.2-5,1.3-8.2,2C76.9,71.9,77.4,70.2,77.9,68.6
		C78,68.5,77.9,68.6,77.9,68.6z"/>
</g>
</svg>
