<?xml version="1.0" encoding="utf-8"?>
<!-- Generator: Adobe Illustrator 21.0.0, SVG Export Plug-In . SVG Version: 6.00 Build 0)  -->
<svg version="1.1" id="Layer_1" xmlns="http://www.w3.org/2000/svg" xmlns:xlink="http://www.w3.org/1999/xlink" x="0px"
     y="0px"
     viewBox="0 0 59.6 59.4" style="enable-background:new 0 0 59.6 59.4;" xml:space="preserve">
<style type="text/css">
	.st0{fill:none;stroke:#000000;stroke-width:4.3387;stroke-miterlimit:10;}
	.st1{fill:none;stroke:#000000;stroke-width:4.0166;stroke-miterlimit:10;}
	.st2{fill-rule:evenodd;clip-rule:evenodd;}
</style>
    <image style="overflow:visible;" width="274" height="51"
           xlink:href="../../Downloads/70987054_526905501454962_3709629851318091776_n.png"
           transform="matrix(3.7117 0 0 3.7117 -28.9157 78.1966)">
</image>
    <path d="M29.8,0C13.3,0,0,13.3,0,29.8C0,44.2,10.3,56.3,23.9,59V38.8H15v-8.9h8.9v-3.7c0-3.5,1.1-8,3.3-10.4c2.2-2.4,5-3.7,8.3-3.7
	h6.2V21h-6.2c-1.5,0-2.7,1.2-2.7,2.7v6.2h8.9v8.9h-8.9v20.6c15-1.5,26.8-14.2,26.8-29.6C59.6,13.3,46.2,0,29.8,0z"/>
    <path d="M155.6,12.7c-2.4,1.1-5,1.8-7.7,2.1c2.8-1.7,4.9-4.3,5.9-7.4c-2.6,1.5-5.4,2.6-8.5,3.2c-2.4-2.6-5.9-4.2-9.8-4.2
	c-7.4,0-13.4,6-13.4,13.4c0,1,0.1,2.1,0.3,3c-11.1-0.6-21-5.9-27.6-14c-1.2,2-1.8,4.3-1.8,6.7c0,4.6,2.4,8.7,5.9,11.1
	c-2.2-0.1-4.3-0.7-6.1-1.7c0,0.1,0,0.1,0,0.2c0,6.5,4.6,11.9,10.7,13.1c-1.1,0.3-2.3,0.5-3.5,0.5c-0.9,0-1.7-0.1-2.5-0.2
	c1.7,5.3,6.6,9.2,12.5,9.3c-4.6,3.6-10.3,5.7-16.6,5.7c-1.1,0-2.1-0.1-3.2-0.2c5.9,3.8,12.9,6,20.5,6c24.6,0,38-20.4,38-38
	c0-0.6,0-1.2,0-1.7C151.6,17.8,153.8,15.4,155.6,12.7z"/>
    <g>
	<path class="st0" d="M224.7,62h-24c-9.4,0-17-7.7-17-17V21c0-9.4,7.7-17,17-17h24c9.4,0,17,7.7,17,17v24
		C241.7,54.3,234,62,224.7,62z"/>
        <circle class="st1" cx="212.7" cy="33" r="14.5"/>
        <circle cx="226.3" cy="17.5" r="2.6"/>
</g>
    <path d="M288,45.1V20.7L306,32.9L288,45.1z M325.4,19.7c0-5.6-4.1-10-9.2-10c-6.9-0.3-13.8-0.4-21-0.4c-0.4,0-0.7,0-1.1,0
	s-0.7,0-1.1,0c-7.1,0-14.1,0.1-21,0.4c-5,0-9.1,4.5-9.1,10.1c-0.3,4.4-0.4,8.8-0.4,13.2c0,4.4,0.1,8.8,0.4,13.2
	c0,5.6,4.1,10.1,9.1,10.1c7.2,0.3,14.6,0.5,22.1,0.5c7.5,0,14.9-0.1,22.1-0.5c5.1,0,9.2-4.5,9.2-10.1c0.3-4.4,0.4-8.8,0.4-13.2
	C325.8,28.5,325.6,24.1,325.4,19.7z"/>
    <path class="st2" d="M383.2,25C383.2,25,383.2,25,383.2,25c0,2.1,0,4.2,0,6.3c0,1.2,0.7,2,1.8,2c1.1,0,1.8-0.7,1.8-2
	c0-4.3,0-8.5-0.1-12.8c0-0.4-0.1-0.8-0.3-1.1c-0.4-0.7-1.1-0.9-1.9-0.7c-0.8,0.2-1.2,0.9-1.2,1.8C383.2,20.8,383.2,22.9,383.2,25z
	 M375,29.8c0-0.4,0-0.8,0-1.1c0-3.3,0-6.7,0-10c0-1.2-0.7-2-1.8-2c-1,0-1.7,0.8-1.7,2c0,4.2,0,8.4,0,12.6c0,1.3,0.7,2,2,2
	c2,0,4.1,0,6.1,0c1.2,0,2-0.7,2-1.7c0-1-0.8-1.8-2.1-1.8C378.1,29.8,376.6,29.8,375,29.8z M408.4,20.2c1.5,0,3,0,4.5,0
	c1.2,0,2-0.7,2-1.7c0-1.1-0.8-1.8-2-1.8c-2,0-4,0-6,0c-1.4,0-2.1,0.7-2.1,2.1c0,1.3,0,2.5,0,3.8c0,2.9,0,5.8,0,8.7c0,1.4,0.7,2,2,2
	c2.1,0,4.2,0,6.3,0c0.9,0,1.4-0.4,1.7-1.2c0.4-1.1-0.5-2.3-1.8-2.3c-1.6,0-3.1,0-4.7,0c0-1.1,0-2,0-3c1.6,0,3.1,0,4.7,0
	c1.1,0,1.8-0.7,1.9-1.7c0-1-0.7-1.8-1.9-1.8c-0.5,0-1,0-1.5,0c-1.1,0-2.1,0-3.2,0C408.4,22.2,408.4,21.3,408.4,20.2z M392.7,23.6
	c0.2,0.3,0.3,0.4,0.4,0.5c2,2.8,4.1,5.5,6.1,8.3c0.6,0.8,1.4,1.1,2.1,0.9c0.8-0.2,1.2-0.9,1.2-1.9c0-4.3,0-8.6,0-12.9
	c0-1.1-0.8-1.8-1.7-1.8c-1,0-1.7,0.8-1.7,1.9c0,2.3,0,4.7,0,7c0,0.2,0,0.4-0.1,0.8c-0.2-0.3-0.3-0.4-0.5-0.6c-2-2.7-4-5.4-5.9-8.1
	c-0.7-0.9-1.3-1.2-2.2-1c-0.9,0.3-1.2,0.9-1.2,2.1c0,4.1,0,8.2,0,12.3c0,1.3,0.7,2.1,1.8,2.1c1.1,0,1.8-0.7,1.8-2c0-1.6,0-3.1,0-4.7
	C392.7,25.6,392.7,24.7,392.7,23.6z M393.2-1.7c8.5,0.1,16.3,2.3,23.1,7.6c4.6,3.5,8,8,9.5,13.7c1.8,6.7,0.5,12.8-3.3,18.5
	c-2.7,4-6.3,7.2-10,10.3c-6,4.9-12.3,9.2-19.1,12.9c-0.6,0.3-1.2,0.6-1.9,0.8c-1.1,0.3-1.8-0.4-1.6-1.5c0.1-0.5,0.4-1,0.5-1.5
	c0.3-1.6,0.7-3.2,0.9-4.9c0.1-1.2-0.5-1.8-1.8-1.9c-7.7-0.7-14.7-3.3-20.7-8.3c-5.1-4.4-8.3-9.9-8.9-16.7
	c-0.5-5.9,1.2-11.2,4.8-15.8c4.9-6.3,11.4-10,19.1-11.9C386.9-1.4,390-1.8,393.2-1.7z"/>
    <path d="M609.7-76.5c0,6-8.2,9.8-12.8,5.7c-4.6-3.3-3.3-11.7,2.2-13.3C604.3-86,610.3-81.6,609.7-76.5z M571.4-74.8
	c-1.1,5.2-8.2,7.9-12.2,4.4c-4.9-3.3-3.5-11.7,2.2-13.6C566.8-86.3,573-80.5,571.4-74.8z M613.8-99.3c-15.8-9-35.6-10.3-52.5-4.1
	c-11.2,4.1-21.2,11.4-27.5,21.8c-5.7,9.3-7.9,20.7-5.2,31.3c2.7,11.7,10.9,21.5,20.7,28c-1.9,5.4-3.8,10.9-5.4,16.3
	c6.3-3.3,12.5-6.5,18.5-9.8c7.6,2.4,15.2,3.5,23.1,3.3c-2.2-6-2.4-12.5-1.6-18.8c1.4-8.7,6.3-16.6,12.8-22.6
	c10.9-10.3,26.4-14.7,41.4-13.6C635.3-81.4,625.8-92.8,613.8-99.3z"/>
    <path d="M655.7-34.6c-1.6,3.8-7.1,4.6-9.8,1.6c-1.4-1.1-1.6-3-2.2-4.6c0.8-3,2.7-6,6-6C654.1-44.1,658.2-38.7,655.7-34.6z
	 M625.2-35.1c-1.4,4.1-7.3,5.4-10.3,2.2c-3.3-3-1.9-9,2.2-10.3C622-45.2,627.4-39.7,625.2-35.1z M677.5-38.4
	c-3.8-8.7-11.2-15.8-19.6-19.9c-15-7.6-33.5-7.6-48.4,0.3c-10.3,5.4-19,15-21.5,26.4c-1.9,8.4-0.3,17.7,4.4,25
	c6.8,11.2,18.8,18.2,31.6,20.7c9.3,1.9,18.8,0.8,27.5-1.9c5.4,2.2,10.1,5.4,15.2,7.9c-1.4-4.4-2.7-9-4.4-13.3
	C668,2.7,673.4-2.5,676.4-9C681.3-18,681.6-29.1,677.5-38.4z"/>
</svg>
