<?xml version="1.0" encoding="utf-8"?>
<!-- Generator: Adobe Illustrator 21.0.0, SVG Export Plug-In . SVG Version: 6.00 Build 0)  -->
<svg version="1.1" id="Layer_1" xmlns="http://www.w3.org/2000/svg" xmlns:xlink="http://www.w3.org/1999/xlink" x="0px"
     y="0px"
     viewBox="0 0 62.3 62.3" style="enable-background:new 0 0 62.3 62.3;" xml:space="preserve">
<image style="overflow:visible;enable-background:new    ;" width="274" height="51"
       xlink:href="../../Downloads/70987054_526905501454962_3709629851318091776_n.png"
       transform="matrix(3.7117 0 0 3.7117 51.6382 255.1519)">
</image>
    <path d="M110.4,176.9c-16.5,0-29.8,13.3-29.8,29.8c0,14.4,10.3,26.5,23.9,29.2v-20.2h-8.9v-8.9h8.9v-3.7c0-3.5,1.1-8,3.3-10.4
	c2.2-2.4,5-3.7,8.3-3.7h6.2v8.9h-6.2c-1.5,0-2.7,1.2-2.7,2.7v6.2h8.9v8.9h-8.9v20.6c15-1.5,26.8-14.2,26.8-29.6
	C140.2,190.3,126.8,176.9,110.4,176.9z"/>
    <path d="M236.2,189.7c-2.4,1.1-5,1.8-7.7,2.1c2.8-1.7,4.9-4.3,5.9-7.4c-2.6,1.5-5.4,2.6-8.5,3.2c-2.4-2.6-5.9-4.2-9.8-4.2
	c-7.4,0-13.4,6-13.4,13.4c0,1,0.1,2.1,0.3,3c-11.1-0.6-21-5.9-27.6-14c-1.2,2-1.8,4.3-1.8,6.7c0,4.6,2.4,8.7,5.9,11.1
	c-2.2-0.1-4.3-0.7-6.1-1.7c0,0.1,0,0.1,0,0.2c0,6.5,4.6,11.9,10.7,13.1c-1.1,0.3-2.3,0.5-3.5,0.5c-0.9,0-1.7-0.1-2.5-0.2
	c1.7,5.3,6.6,9.2,12.5,9.3c-4.6,3.6-10.3,5.7-16.6,5.7c-1.1,0-2.1-0.1-3.2-0.2c5.9,3.8,12.9,6,20.5,6c24.6,0,38-20.4,38-38
	c0-0.6,0-1.2,0-1.7C232.1,194.7,234.4,192.3,236.2,189.7z"/>
    <g>
	<path d="M43.2,62.4h-24C8.6,62.4,0,53.8,0,43.2v-24C0,8.6,8.6,0,19.2,0h24c10.6,0,19.2,8.6,19.2,19.2v24
		C62.4,53.8,53.8,62.4,43.2,62.4z M19.2,4.4C11,4.4,4.4,11,4.4,19.2v24C4.4,51.4,11,58,19.2,58h24c8,0,14.8-6.8,14.8-14.8v-24
		C58,11,51.4,4.4,43.2,4.4H19.2z"/>
        <path d="M31.2,47.7c-9.1,0-16.5-7.4-16.5-16.5s7.4-16.5,16.5-16.5s16.5,7.4,16.5,16.5S40.3,47.7,31.2,47.7z M31.2,18.7
		c-6.9,0-12.5,5.6-12.5,12.5c0,6.9,5.6,12.5,12.5,12.5c6.9,0,12.5-5.6,12.5-12.5C43.7,24.3,38.1,18.7,31.2,18.7z"/>
        <circle cx="44.7" cy="15.7" r="2.6"/>
</g>
    <path d="M368.6,222v-24.3l17.9,12.2L368.6,222z M405.9,196.6c0-5.6-4.1-10-9.2-10c-6.9-0.3-13.8-0.4-21-0.4c-0.4,0-0.7,0-1.1,0
	s-0.7,0-1.1,0c-7.1,0-14.1,0.1-21,0.4c-5,0-9.1,4.5-9.1,10.1c-0.3,4.4-0.4,8.8-0.4,13.2s0.1,8.8,0.4,13.2c0,5.6,4.1,10.1,9.1,10.1
	c7.2,0.3,14.6,0.5,22.1,0.5s14.9-0.1,22.1-0.5c5.1,0,9.2-4.5,9.2-10.1c0.3-4.4,0.4-8.8,0.4-13.2C406.4,205.4,406.2,201,405.9,196.6z
	"/>
    <path d="M463.8,201.9L463.8,201.9c0,2.1,0,4.2,0,6.3c0,1.2,0.7,2,1.8,2s1.8-0.7,1.8-2c0-4.3,0-8.5-0.1-12.8c0-0.4-0.1-0.8-0.3-1.1
	c-0.4-0.7-1.1-0.9-1.9-0.7s-1.2,0.9-1.2,1.8C463.8,197.7,463.8,199.8,463.8,201.9z M455.6,206.8c0-0.4,0-0.8,0-1.1c0-3.3,0-6.7,0-10
	c0-1.2-0.7-2-1.8-2c-1,0-1.7,0.8-1.7,2c0,4.2,0,8.4,0,12.6c0,1.3,0.7,2,2,2c2,0,4.1,0,6.1,0c1.2,0,2-0.7,2-1.7s-0.8-1.8-2.1-1.8
	C458.7,206.8,457.2,206.8,455.6,206.8z M489,197.1c1.5,0,3,0,4.5,0c1.2,0,2-0.7,2-1.7c0-1.1-0.8-1.8-2-1.8c-2,0-4,0-6,0
	c-1.4,0-2.1,0.7-2.1,2.1c0,1.3,0,2.5,0,3.8c0,2.9,0,5.8,0,8.7c0,1.4,0.7,2,2,2c2.1,0,4.2,0,6.3,0c0.9,0,1.4-0.4,1.7-1.2
	c0.4-1.1-0.5-2.3-1.8-2.3c-1.6,0-3.1,0-4.7,0c0-1.1,0-2,0-3c1.6,0,3.1,0,4.7,0c1.1,0,1.8-0.7,1.9-1.7c0-1-0.7-1.8-1.9-1.8
	c-0.5,0-1,0-1.5,0c-1.1,0-2.1,0-3.2,0C489,199.1,489,198.2,489,197.1z M473.2,200.5c0.2,0.3,0.3,0.4,0.4,0.5c2,2.8,4.1,5.5,6.1,8.3
	c0.6,0.8,1.4,1.1,2.1,0.9c0.8-0.2,1.2-0.9,1.2-1.9c0-4.3,0-8.6,0-12.9c0-1.1-0.8-1.8-1.7-1.8c-1,0-1.7,0.8-1.7,1.9c0,2.3,0,4.7,0,7
	c0,0.2,0,0.4-0.1,0.8c-0.2-0.3-0.3-0.4-0.5-0.6c-2-2.7-4-5.4-5.9-8.1c-0.7-0.9-1.3-1.2-2.2-1c-0.9,0.3-1.2,0.9-1.2,2.1
	c0,4.1,0,8.2,0,12.3c0,1.3,0.7,2.1,1.8,2.1s1.8-0.7,1.8-2c0-1.6,0-3.1,0-4.7C473.2,202.6,473.2,201.6,473.2,200.5z M473.8,175.2
	c8.5,0.1,16.3,2.3,23.1,7.6c4.6,3.5,8,8,9.5,13.7c1.8,6.7,0.5,12.8-3.3,18.5c-2.7,4-6.3,7.2-10,10.3c-6,4.9-12.3,9.2-19.1,12.9
	c-0.6,0.3-1.2,0.6-1.9,0.8c-1.1,0.3-1.8-0.4-1.6-1.5c0.1-0.5,0.4-1,0.5-1.5c0.3-1.6,0.7-3.2,0.9-4.9c0.1-1.2-0.5-1.8-1.8-1.9
	c-7.7-0.7-14.7-3.3-20.7-8.3c-5.1-4.4-8.3-9.9-8.9-16.7c-0.5-5.9,1.2-11.2,4.8-15.8c4.9-6.3,11.4-10,19.1-11.9
	C467.5,175.5,470.6,175.1,473.8,175.2z"/>
    <path d="M690.3,100.5c0,6-8.2,9.8-12.8,5.7c-4.6-3.3-3.3-11.7,2.2-13.3C684.9,90.9,690.9,95.3,690.3,100.5z M652,102.1
	c-1.1,5.2-8.2,7.9-12.2,4.4c-4.9-3.3-3.5-11.7,2.2-13.6C647.3,90.7,653.6,96.4,652,102.1z M694.4,77.6c-15.8-9-35.6-10.3-52.5-4.1
	c-11.2,4.1-21.2,11.4-27.5,21.8c-5.7,9.3-7.9,20.7-5.2,31.3c2.7,11.7,10.9,21.5,20.7,28c-1.9,5.4-3.8,10.9-5.4,16.3
	c6.3-3.3,12.5-6.5,18.5-9.8c7.6,2.4,15.2,3.5,23.1,3.3c-2.2-6-2.4-12.5-1.6-18.8c1.4-8.7,6.3-16.6,12.8-22.6
	c10.9-10.3,26.4-14.7,41.4-13.6C715.9,95.6,706.4,84.1,694.4,77.6z"/>
    <path d="M736.3,142.3c-1.6,3.8-7.1,4.6-9.8,1.6c-1.4-1.1-1.6-3-2.2-4.6c0.8-3,2.7-6,6-6C734.7,132.8,738.8,138.3,736.3,142.3z
	 M705.8,141.8c-1.4,4.1-7.3,5.4-10.3,2.2c-3.3-3-1.9-9,2.2-10.3C702.6,131.7,708,137.2,705.8,141.8z M758.1,138.5
	c-3.8-8.7-11.2-15.8-19.6-19.9c-15-7.6-33.5-7.6-48.4,0.3c-10.3,5.4-19,15-21.5,26.4c-1.9,8.4-0.3,17.7,4.4,25
	c6.8,11.2,18.8,18.2,31.6,20.7c9.3,1.9,18.8,0.8,27.5-1.9c5.4,2.2,10.1,5.4,15.2,7.9c-1.4-4.4-2.7-9-4.4-13.3
	c5.7-4.1,11.2-9.3,14.1-15.8C761.9,158.9,762.2,147.8,758.1,138.5z"/>
</svg>
