<?xml version="1.0" encoding="utf-8"?>
<!-- Generator: Adobe Illustrator 21.0.0, SVG Export Plug-In . SVG Version: 6.00 Build 0)  -->
<svg version="1.1" id="Layer_1" xmlns="http://www.w3.org/2000/svg" xmlns:xlink="http://www.w3.org/1999/xlink" x="0px"
     y="0px"
     viewBox="0 0 63.3 47.5" style="enable-background:new 0 0 63.3 47.5;" xml:space="preserve">
<style type="text/css">
	.st0{fill:none;stroke:#000000;stroke-width:4.3387;stroke-miterlimit:10;}
	.st1{fill:none;stroke:#000000;stroke-width:4.0166;stroke-miterlimit:10;}
	.st2{fill-rule:evenodd;clip-rule:evenodd;}
</style>
    <image style="overflow:visible;" width="274" height="51"
           xlink:href="../../Downloads/70987054_526905501454962_3709629851318091776_n.png"
           transform="matrix(3.7117 0 0 3.7117 -291.3333 69.0045)">
</image>
    <path d="M-232.6-9.2c-16.5,0-29.8,13.3-29.8,29.8c0,14.4,10.3,26.5,23.9,29.2V29.6h-8.9v-8.9h8.9V17c0-3.5,1.1-8,3.3-10.4
	c2.2-2.4,5-3.7,8.3-3.7h6.2v8.9h-6.2c-1.5,0-2.7,1.2-2.7,2.7v6.2h8.9v8.9h-8.9v20.6c15-1.5,26.8-14.2,26.8-29.6
	C-202.8,4.1-216.2-9.2-232.6-9.2z"/>
    <path d="M-106.8,3.5c-2.4,1.1-5,1.8-7.7,2.1c2.8-1.7,4.9-4.3,5.9-7.4c-2.6,1.5-5.4,2.6-8.5,3.2c-2.4-2.6-5.9-4.2-9.8-4.2
	c-7.4,0-13.4,6-13.4,13.4c0,1,0.1,2.1,0.3,3c-11.1-0.6-21-5.9-27.6-14c-1.2,2-1.8,4.3-1.8,6.7c0,4.6,2.4,8.7,5.9,11.1
	c-2.2-0.1-4.3-0.7-6.1-1.7c0,0.1,0,0.1,0,0.2c0,6.5,4.6,11.9,10.7,13.1c-1.1,0.3-2.3,0.5-3.5,0.5c-0.9,0-1.7-0.1-2.5-0.2
	c1.7,5.3,6.6,9.2,12.5,9.3c-4.6,3.6-10.3,5.7-16.6,5.7c-1.1,0-2.1-0.1-3.2-0.2c5.9,3.8,12.9,6,20.5,6c24.6,0,38-20.4,38-38
	c0-0.6,0-1.2,0-1.7C-110.9,8.6-108.6,6.2-106.8,3.5z"/>
    <g>
	<path class="st0" d="M-37.7,52.8h-24c-9.4,0-17-7.7-17-17v-24c0-9.4,7.7-17,17-17h24c9.4,0,17,7.7,17,17v24
		C-20.7,45.1-28.4,52.8-37.7,52.8z"/>
        <circle class="st1" cx="-49.7" cy="23.8" r="14.5"/>
        <circle cx="-36.2" cy="8.3" r="2.6"/>
</g>
    <path d="M25.6,35.9V11.6l17.9,12.2L25.6,35.9z M62.9,10.5c0-5.6-4.1-10-9.2-10C46.9,0.1,39.9,0,32.8,0c-0.4,0-0.7,0-1.1,0
	s-0.7,0-1.1,0c-7.1,0-14.1,0.1-21,0.4c-5,0-9.1,4.5-9.1,10.1C0.1,14.9,0,19.3,0,23.7c0,4.4,0.1,8.8,0.4,13.2C0.4,42.5,4.5,47,9.6,47
	c7.2,0.3,14.6,0.5,22.1,0.5c7.5,0,14.9-0.1,22.1-0.5c5.1,0,9.2-4.5,9.2-10.1c0.3-4.4,0.4-8.8,0.4-13.2
	C63.4,19.3,63.2,14.9,62.9,10.5z"/>
    <path class="st2" d="M120.8,15.8C120.8,15.8,120.8,15.8,120.8,15.8c0,2.1,0,4.2,0,6.3c0,1.2,0.7,2,1.8,2c1.1,0,1.8-0.7,1.8-2
	c0-4.3,0-8.5-0.1-12.8c0-0.4-0.1-0.8-0.3-1.1c-0.4-0.7-1.1-0.9-1.9-0.7c-0.8,0.2-1.2,0.9-1.2,1.8C120.8,11.6,120.8,13.7,120.8,15.8z
	 M112.6,20.6c0-0.4,0-0.8,0-1.1c0-3.3,0-6.7,0-10c0-1.2-0.7-2-1.8-2c-1,0-1.7,0.8-1.7,2c0,4.2,0,8.4,0,12.6c0,1.3,0.7,2,2,2
	c2,0,4.1,0,6.1,0c1.2,0,2-0.7,2-1.7c0-1-0.8-1.8-2.1-1.8C115.7,20.6,114.2,20.6,112.6,20.6z M146,11c1.5,0,3,0,4.5,0
	c1.2,0,2-0.7,2-1.7c0-1.1-0.8-1.8-2-1.8c-2,0-4,0-6,0c-1.4,0-2.1,0.7-2.1,2.1c0,1.3,0,2.5,0,3.8c0,2.9,0,5.8,0,8.7c0,1.4,0.7,2,2,2
	c2.1,0,4.2,0,6.3,0c0.9,0,1.4-0.4,1.7-1.2c0.4-1.1-0.5-2.3-1.8-2.3c-1.6,0-3.1,0-4.7,0c0-1.1,0-2,0-3c1.6,0,3.1,0,4.7,0
	c1.1,0,1.8-0.7,1.9-1.7c0-1-0.7-1.8-1.9-1.8c-0.5,0-1,0-1.5,0c-1.1,0-2.1,0-3.2,0C146,13,146,12.1,146,11z M130.2,14.4
	c0.2,0.3,0.3,0.4,0.4,0.5c2,2.8,4.1,5.5,6.1,8.3c0.6,0.8,1.4,1.1,2.1,0.9c0.8-0.2,1.2-0.9,1.2-1.9c0-4.3,0-8.6,0-12.9
	c0-1.1-0.8-1.8-1.7-1.8c-1,0-1.7,0.8-1.7,1.9c0,2.3,0,4.7,0,7c0,0.2,0,0.4-0.1,0.8c-0.2-0.3-0.3-0.4-0.5-0.6c-2-2.7-4-5.4-5.9-8.1
	c-0.7-0.9-1.3-1.2-2.2-1c-0.9,0.3-1.2,0.9-1.2,2.1c0,4.1,0,8.2,0,12.3c0,1.3,0.7,2.1,1.8,2.1c1.1,0,1.8-0.7,1.8-2c0-1.6,0-3.1,0-4.7
	C130.2,16.5,130.2,15.5,130.2,14.4z M130.8-10.9c8.5,0.1,16.3,2.3,23.1,7.6c4.6,3.5,8,8,9.5,13.7c1.8,6.7,0.5,12.8-3.3,18.5
	c-2.7,4-6.3,7.2-10,10.3c-6,4.9-12.3,9.2-19.1,12.9c-0.6,0.3-1.2,0.6-1.9,0.8c-1.1,0.3-1.8-0.4-1.6-1.5c0.1-0.5,0.4-1,0.5-1.5
	c0.3-1.6,0.7-3.2,0.9-4.9c0.1-1.2-0.5-1.8-1.8-1.9c-7.7-0.7-14.7-3.3-20.7-8.3c-5.1-4.4-8.3-9.9-8.9-16.7C97,12,98.7,6.7,102.3,2
	c4.9-6.3,11.4-10,19.1-11.9C124.5-10.6,127.6-11,130.8-10.9z"/>
    <path d="M347.3-85.6c0,6-8.2,9.8-12.8,5.7c-4.6-3.3-3.3-11.7,2.2-13.3C341.9-95.2,347.9-90.8,347.3-85.6z M309-84
	c-1.1,5.2-8.2,7.9-12.2,4.4c-4.9-3.3-3.5-11.7,2.2-13.6C304.3-95.4,310.6-89.7,309-84z M351.4-108.5c-15.8-9-35.6-10.3-52.5-4.1
	c-11.2,4.1-21.2,11.4-27.5,21.8c-5.7,9.3-7.9,20.7-5.2,31.3c2.7,11.7,10.9,21.5,20.7,28c-1.9,5.4-3.8,10.9-5.4,16.3
	c6.3-3.3,12.5-6.5,18.5-9.8c7.6,2.4,15.2,3.5,23.1,3.3c-2.2-6-2.4-12.5-1.6-18.8c1.4-8.7,6.3-16.6,12.8-22.6
	c10.9-10.3,26.4-14.7,41.4-13.6C372.9-90.5,363.4-102,351.4-108.5z"/>
    <path d="M393.3-43.8c-1.6,3.8-7.1,4.6-9.8,1.6c-1.4-1.1-1.6-3-2.2-4.6c0.8-3,2.7-6,6-6C391.7-53.3,395.8-47.8,393.3-43.8z
	 M362.8-44.3c-1.4,4.1-7.3,5.4-10.3,2.2c-3.3-3-1.9-9,2.2-10.3C359.6-54.4,365-48.9,362.8-44.3z M415.1-47.6
	c-3.8-8.7-11.2-15.8-19.6-19.9c-15-7.6-33.5-7.6-48.4,0.3c-10.3,5.4-19,15-21.5,26.4c-1.9,8.4-0.3,17.7,4.4,25
	c6.8,11.2,18.8,18.2,31.6,20.7c9.3,1.9,18.8,0.8,27.5-1.9c5.4,2.2,10.1,5.4,15.2,7.9c-1.4-4.4-2.7-9-4.4-13.3
	c5.7-4.1,11.2-9.3,14.1-15.8C418.9-27.2,419.2-38.3,415.1-47.6z"/>
</svg>
