<svg xmlns="http://www.w3.org/2000/svg" width="23.525" height="23.525" viewBox="0 0 23.525 23.525">
    <g id="bathroom-icon" transform="translate(-8 -8)">
        <path id="Path_7172" data-name="Path 7172"
              d="M31.146,21.28h-1.9V11.794a3.794,3.794,0,1,0-7.589,0v.032a2.28,2.28,0,0,0-1.9,2.244v1.138a.379.379,0,0,0,.379.379h3.794a.379.379,0,0,0,.379-.379V14.071a2.28,2.28,0,0,0-1.9-2.244v-.032a3.036,3.036,0,0,1,6.071,0V21.28H19.763a.38.38,0,0,0-.268.111L18.088,22.8H8.379A.379.379,0,0,0,8,23.178v1.138a.379.379,0,0,0,.379.379h.759v2.656a2.66,2.66,0,0,0,2.277,2.629v1.166a.379.379,0,0,0,.379.379h1.138a.379.379,0,0,0,.368-.287l.308-1.23H25.917l.308,1.23a.379.379,0,0,0,.368.287h1.138a.379.379,0,0,0,.379-.379V29.98a2.66,2.66,0,0,0,2.277-2.629V23.178h.759a.379.379,0,0,0,.379-.379V21.66A.379.379,0,0,0,31.146,21.28ZM23.557,14.83H20.522v-.379h3.036Zm-.048-1.138h-2.94a1.518,1.518,0,0,1,2.94,0ZM12.636,30.767h-.462v-.759h.652Zm14.715,0h-.462l-.19-.759h.652Zm2.277-3.415a1.9,1.9,0,0,1-1.9,1.9H11.794a1.9,1.9,0,0,1-1.9-1.9V24.7H19a.38.38,0,0,0,.268-.111l1.406-1.407h8.95Zm1.138-4.933H20.522a.38.38,0,0,0-.268.111l-1.406,1.407H8.759v-.379h9.486a.38.38,0,0,0,.268-.111l1.406-1.407H30.767Z"/>
        <path id="Path_7173" data-name="Path 7173"
              d="M296.379,177.9a.379.379,0,0,0,.379-.379v-1.138a.379.379,0,0,0-.759,0v1.138A.379.379,0,0,0,296.379,177.9Z"
              transform="translate(-274.34 -160.032)"/>
        <path id="Path_7174" data-name="Path 7174" d="M296,224.759a.379.379,0,1,0,.759,0v-.379a.379.379,0,0,0-.759,0Z"
              transform="translate(-274.34 -205.755)"/>
        <path id="Path_7175" data-name="Path 7175"
              d="M328.759,177.9v-1.518a.379.379,0,0,0-.759,0V177.9a.379.379,0,0,0,.759,0Z"
              transform="translate(-304.822 -160.032)"/>
        <path id="Path_7176" data-name="Path 7176"
              d="M264.759,184.759v-.379a.379.379,0,1,0-.759,0v.379a.379.379,0,1,0,.759,0Z"
              transform="translate(-243.858 -167.652)"/>
        <path id="Path_7177" data-name="Path 7177"
              d="M81.138,259.277A1.138,1.138,0,1,0,80,258.138,1.138,1.138,0,0,0,81.138,259.277Zm0-1.518a.379.379,0,1,1-.379.379A.379.379,0,0,1,81.138,257.759Z"
              transform="translate(-68.585 -237.19)"/>
        <path id="Path_7178" data-name="Path 7178"
              d="M145.518,228.036A1.518,1.518,0,1,0,144,226.518,1.518,1.518,0,0,0,145.518,228.036Zm0-2.277a.759.759,0,1,1-.759.759A.759.759,0,0,1,145.518,225.759Z"
              transform="translate(-129.549 -206.708)"/>
        <path id="Path_7179" data-name="Path 7179"
              d="M97.138,186.277A1.138,1.138,0,1,0,96,185.138,1.138,1.138,0,0,0,97.138,186.277Zm0-1.518a.379.379,0,1,1-.379.379A.379.379,0,0,1,97.138,184.759Z"
              transform="translate(-83.826 -167.652)"/>
    </g>
</svg>
