<svg xmlns="http://www.w3.org/2000/svg" width="13.521" height="22.21" viewBox="0 0 13.521 22.21">
    <g id="direction-icon" transform="translate(-98.195 -0.25)">
        <path id="Subtraction_2" data-name="Subtraction 2"
              d="M-3863.14-442.9a.416.416,0,0,1-.415-.416v-5.047a.415.415,0,0,1,.292-.4.439.439,0,0,1,.123-.018.416.416,0,0,1,.342.179l2.775,4.019-.037-3.788a.409.409,0,0,1,.119-.295.42.42,0,0,1,.3-.125.416.416,0,0,1,.415.411l.048,4.89a.5.5,0,0,1-.341.508.488.488,0,0,1-.139.021.5.5,0,0,1-.407-.229l-2.655-3.845v3.714A.416.416,0,0,1-3863.14-442.9Z"
              transform="translate(3966.335 449.04)"/>
        <path id="Subtraction_1" data-name="Subtraction 1"
              d="M-3850.45-434.8a.416.416,0,0,1-.224-.066l-6.121-3.928-6.121,3.928a.417.417,0,0,1-.224.066.415.415,0,0,1-.275-.1.416.416,0,0,1-.1-.492l6.345-13.156a.418.418,0,0,1,.374-.235.418.418,0,0,1,.374.235l6.345,13.156a.418.418,0,0,1-.1.492A.411.411,0,0,1-3850.45-434.8Zm-5.455-10.769h0l-.475.109v5.947l4.918,3.156-4.442-9.211Zm-1.781,0h0l-4.442,9.211,4.918-3.156v-5.947l-.475-.109Z"
              transform="translate(3961.751 457.263)"/>
    </g>
</svg>
