<svg xmlns="http://www.w3.org/2000/svg" width="17.157" height="17.157" viewBox="0 0 17.157 17.157"><ellipse cx="4.5" cy="1.5" rx="4.5" ry="1.5" transform="translate(0 0)"/><path d="M5,7.283c2.764,0,5-.64,5-1.43V4.233a12.574,12.574,0,0,1-5,.906,12.574,12.574,0,0,1-5-.906V5.854C0,6.644,2.24,7.283,5,7.283Z" transform="translate(0 -1.207)"/><path d="M6.791,18.545v2.137a15.558,15.558,0,0,1-1.787.1c-2.767,0-5-.643-5-1.43V17.73a12.6,12.6,0,0,0,5,.908C5.312,18.638,5.991,18.624,6.791,18.545Z" transform="translate(0 -5.055)"/><path d="M6.87,14.038a1.884,1.884,0,0,0-.05.214l-.029-.021v1.952a15.558,15.558,0,0,1-1.787.1c-2.767,0-5-.643-5-1.43V13.23a12.6,12.6,0,0,0,5,.908C5.319,14.138,6.034,14.124,6.87,14.038Z" transform="translate(0 -3.772)"/><path d="M5,9.639a12.574,12.574,0,0,1-5-.906v1.621c0,.79,2.24,1.43,5,1.43s5-.64,5-1.43V8.733A12.574,12.574,0,0,1,5,9.639Z" transform="translate(0 -2.49)"/><ellipse cx="4.5" cy="2" rx="4.5" ry="2" transform="translate(8 8)"/><path d="M15.647,19.568c2.566,0,4.647-.64,4.647-1.43v-.906a10.921,10.921,0,0,1-4.647.906A10.932,10.932,0,0,1,11,17.233v.906C11,18.929,13.08,19.568,15.647,19.568Z" transform="translate(-3.136 -4.914)"/><path d="M15.647,21.639A10.932,10.932,0,0,1,11,20.733v.906c0,.79,2.08,1.43,4.647,1.43s4.647-.64,4.647-1.43v-.906A10.932,10.932,0,0,1,15.647,21.639Z" transform="translate(-3.136 -5.912)"/></svg>