<svg xmlns="http://www.w3.org/2000/svg" width="51.307" height="51.307" viewBox="0 0 51.307 51.307"><path d="M51.294,24.817A25.654,25.654,0,1,0,24.817,51.294c.281.009.559.013.837.013a25.655,25.655,0,0,0,25.64-26.49ZM40.2,39.742a20.089,20.089,0,0,1-14.547,6.163c-.221,0-.442,0-.665-.01A20.251,20.251,0,0,1,25.654,5.4c.221,0,.442,0,.665.01A20.25,20.25,0,0,1,40.2,39.742Z" transform="translate(0 -0.001)"/><path d="M69.221,51.981,57.845,43.824a1.834,1.834,0,0,0-2.9,1.49V61.628a1.834,1.834,0,0,0,2.9,1.49L69.22,54.961A1.834,1.834,0,0,0,69.221,51.981Z" transform="translate(-35.153 -27.818)"/></svg>