<svg xmlns="http://www.w3.org/2000/svg" width="19.172" height="15.498" viewBox="0 0 19.172 15.498"><path d="M19.172,112.49H18.2V99.566H14.77v2.269h1.653v1.123H14.77v1.123h1.653v1.123H14.77v1.123h1.653v1.123H14.77v1.123h1.653V109.7H14.77v2.791H13.684V98.116h-8.2V112.49H4.4V109.7H2.775v-1.123H4.4v-1.123H2.775v-1.123H4.4v-1.123H2.775v-1.123H4.4v-1.123H2.775v-1.123H4.4V99.566H.974V112.49H0v1.123H19.172Zm-7.732-10.643v1.123h-1.2v-1.123Zm-1.2-1.123V99.6h1.2v1.123Zm1.2,3.37v1.123h-1.2v-1.123Zm0,2.247v1.123h-1.2v-1.123Zm0,2.247v1.123h-1.2v-1.123Zm-3.707-1.123v-1.123h1.2v1.123Zm1.2,1.123v1.123h-1.2v-1.123Zm-1.2-3.37v-1.123h1.2v1.123Zm0-2.247v-1.123h1.2v1.123Zm0-2.247V99.6h1.2v1.123ZM9.024,110.8h1.123v1.693H9.024Z" transform="translate(0 -98.116)"/></svg>