<svg xmlns="http://www.w3.org/2000/svg" width="19.426" height="19.426" viewBox="0 0 19.426 19.426"><g transform="translate(0 -0.003)"><path d="M2.284,333.045.021,335.308a.07.07,0,0,0,.029.118l2.725.828a1.208,1.208,0,0,1,.805.805l.828,2.725a.07.07,0,0,0,.118.029l3.028-3.028A8.911,8.911,0,0,1,2.284,333.045Z" transform="translate(0 -320.406)"/><path d="M320.421,335.308l-2.263-2.263a8.911,8.911,0,0,1-5.27,3.741l3.028,3.028a.07.07,0,0,0,.118-.029l.828-2.725a1.208,1.208,0,0,1,.806-.805l2.725-.828A.07.07,0,0,0,320.421,335.308Z" transform="translate(-301.016 -320.406)"/><path d="M67.236,7.753a7.75,7.75,0,1,0-8.941,7.659,7.759,7.759,0,0,0,8.941-7.659ZM53.444,9.642a6.329,6.329,0,1,1,11.6,1.13,6.336,6.336,0,0,1-11.6-1.13Z" transform="translate(-49.772)"/><path d="M124.384,67.471a5.189,5.189,0,1,0,4.714,7.362A5.2,5.2,0,0,0,124.384,67.471ZM127,71.933l-3.236,2.4a.569.569,0,0,1-.754-.068l-1.367-1.457a.569.569,0,0,1,.112-.871h0a.569.569,0,0,1,.717.093l1.02,1.087,2.872-2.131a.57.57,0,1,1,.636.945Z" transform="translate(-114.671 -64.908)"/></g></svg>