<svg xmlns="http://www.w3.org/2000/svg" width="11.012" height="10.554" viewBox="0 0 11.012 10.554">
    <g id="filter-icon" transform="translate(0 -10.667)">
        <g id="Group_8" data-name="Group 8" transform="translate(0 18.009)">
            <g id="Group_7" data-name="Group 7">
                <path id="Path_5" data-name="Path 5"
                      d="M10.554,353.147H9.332a1.6,1.6,0,0,0-3.062,0H.459a.459.459,0,0,0,0,.918h5.81a1.6,1.6,0,0,0,3.062,0h1.222a.459.459,0,0,0,0-.918ZM7.8,354.294a.688.688,0,1,1,.688-.688A.689.689,0,0,1,7.8,354.294Z"
                      transform="translate(0 -352)"/>
            </g>
        </g>
        <g id="Group_10" data-name="Group 10" transform="translate(0 10.667)">
            <g id="Group_9" data-name="Group 9">
                <path id="Path_6" data-name="Path 6"
                      d="M10.554,11.814H9.332a1.6,1.6,0,0,0-3.062,0H.459a.459.459,0,0,0,0,.918h5.81a1.6,1.6,0,0,0,3.062,0h1.222a.459.459,0,0,0,0-.918ZM7.8,12.961a.688.688,0,1,1,.688-.688A.689.689,0,0,1,7.8,12.961Z"
                      transform="translate(0 -10.667)"/>
            </g>
        </g>
        <g id="Group_12" data-name="Group 12" transform="translate(0 14.338)">
            <g id="Group_11" data-name="Group 11">
                <path id="Path_7" data-name="Path 7"
                      d="M10.554,182.481H4.743a1.6,1.6,0,0,0-3.062,0H.459a.459.459,0,1,0,0,.918H1.681a1.6,1.6,0,0,0,3.062,0h5.81a.459.459,0,0,0,0-.918Zm-7.342,1.147a.688.688,0,1,1,.688-.688A.689.689,0,0,1,3.212,183.628Z"
                      transform="translate(0 -181.334)"/>
            </g>
        </g>
    </g>
</svg>
