<svg xmlns="http://www.w3.org/2000/svg" width="13.596" height="13.596" viewBox="0 0 13.596 13.596"><path d="M11.878,13.554a.345.345,0,0,1-.177-.3v-.407H4.5v.407a.345.345,0,0,1-.177.3.338.338,0,0,1-.166.042.356.356,0,0,1-.183-.05L2.77,12.794a.344.344,0,0,1,0-.584l1.206-.752a.35.35,0,0,1,.182-.051.343.343,0,0,1,.344.344v.407h7.2V11.75a.345.345,0,0,1,.177-.3.352.352,0,0,1,.349.008l1.207.752a.345.345,0,0,1,0,.584l-1.207.752a.349.349,0,0,1-.182.05A.343.343,0,0,1,11.878,13.554ZM4.159,13.48a.222.222,0,0,0,.109-.028A.228.228,0,0,1,4.159,13.48Zm7.908,0h0Zm-.132-.027a.242.242,0,0,0,.035.015.242.242,0,0,1-.035-.015.229.229,0,0,1-.117-.2A.229.229,0,0,0,11.935,13.452Zm-9.1-.757,1.207.751L2.831,12.7a.229.229,0,0,1-.107-.193A.229.229,0,0,0,2.831,12.7ZM.8,10.827.052,9.62a.344.344,0,0,1,.293-.525H.751V3.337a.344.344,0,0,1,.183-.3.344.344,0,0,1-.183-.3V1.894H.344a.345.345,0,0,1-.293-.526L.8.162a.344.344,0,0,1,.584,0l.752,1.206a.345.345,0,0,1-.293.526H1.44V2.73a.344.344,0,0,1-.182.3.344.344,0,0,1,.182.3V9.095h.407a.344.344,0,0,1,.293.525l-.752,1.207a.344.344,0,0,1-.584,0ZM.151,9.559.9,10.765a.229.229,0,0,0,.194.108A.229.229,0,0,1,.9,10.765L.151,9.559a.227.227,0,0,1-.035-.115A.227.227,0,0,0,.151,9.559Zm1.285.107h0ZM1.1,2.958A.228.228,0,0,1,.867,2.73.228.228,0,0,0,1.1,2.958Zm-.951-1.3a.229.229,0,0,0,.2.117h0a.227.227,0,0,1-.228-.234A.227.227,0,0,0,.145,1.661Zm1.292-.338L1.1.775l-.342.548L1.1.775Zm1.515,9.665a.344.344,0,0,1-.344-.344V.344A.344.344,0,0,1,2.951,0h10.3A.344.344,0,0,1,13.6.344v.717a.344.344,0,0,1-.688,0V.688H6.638V5.6h3.935a.344.344,0,1,1,0,.689H6.638V7.676a.344.344,0,1,1-.688,0V.688H3.3V10.3H5.95V9.316a.344.344,0,1,1,.688,0V10.3h6.27V6.291h-.787a.344.344,0,0,1,0-.689h.787V1.819a.344.344,0,0,1,.688,0v8.825a.344.344,0,0,1-.344.344Zm0-.116h0a.227.227,0,0,1-.228-.227A.227.227,0,0,0,2.951,10.872ZM6.294,7.9a.227.227,0,0,1-.228-.228A.227.227,0,0,0,6.294,7.9Zm5.827-1.73h0a.227.227,0,0,1-.228-.227A.227.227,0,0,0,12.121,6.174Zm1.131-4.886a.227.227,0,0,1-.228-.228A.227.227,0,0,0,13.252,1.288Z"/></svg>