<svg xmlns="http://www.w3.org/2000/svg" width="22.853" height="16.069" viewBox="0 0 22.853 16.069"><g transform="translate(0 -76)"><g transform="translate(0 83.142)"><path d="M21.96,236H.893a.893.893,0,0,0,0,1.785H21.96a.893.893,0,0,0,0-1.785Z" transform="translate(0 -236)"/></g><g transform="translate(0 76)"><path d="M21.96,76H.893a.893.893,0,1,0,0,1.785H21.96a.893.893,0,1,0,0-1.785Z" transform="translate(0 -76)"/></g><g transform="translate(0 90.283)"><path d="M21.96,396H.893a.893.893,0,0,0,0,1.785H21.96a.893.893,0,0,0,0-1.785Z" transform="translate(0 -396)"/></g></g></svg>