<svg id="viewmore-icon" xmlns="http://www.w3.org/2000/svg" width="15.756" height="15.756" viewBox="0 0 15.756 15.756">
    <g id="Group_1626" data-name="Group 1626">
        <path id="Path_7284" data-name="Path 7284"
              d="M6.451,0H.33A.33.33,0,0,0,0,.33V6.451a.33.33,0,0,0,.33.33H6.451a.33.33,0,0,0,.33-.33V.33A.33.33,0,0,0,6.451,0Z"
              fill="#fff"/>
        <path id="Path_7285" data-name="Path 7285"
              d="M60.849,0H54.728a.33.33,0,0,0-.33.33V6.451a.33.33,0,0,0,.33.33h6.121a.33.33,0,0,0,.33-.33V.33A.33.33,0,0,0,60.849,0Z"
              transform="translate(-45.423)" fill="#fff"/>
        <path id="Path_7286" data-name="Path 7286"
              d="M6.451,54.4H.33a.33.33,0,0,0-.33.33v6.121a.33.33,0,0,0,.33.33H6.451a.33.33,0,0,0,.33-.33V54.728A.33.33,0,0,0,6.451,54.4Z"
              transform="translate(0 -45.423)" fill="#fff"/>
        <path id="Path_7287" data-name="Path 7287"
              d="M60.849,54.4H54.728a.33.33,0,0,0-.33.33v6.121a.33.33,0,0,0,.33.33h6.121a.33.33,0,0,0,.33-.33V54.728A.33.33,0,0,0,60.849,54.4Z"
              transform="translate(-45.423 -45.423)" fill="#fff"/>
    </g>
</svg>
