<svg xmlns="http://www.w3.org/2000/svg" width="23.045" height="26.399" viewBox="0 0 23.045 26.399">
  <path id="floor-icon" d="M-3414.754,26.334l-10.9-5.452a.615.615,0,0,1-.343-.553.616.616,0,0,1,.343-.554l6.021-3.01-6.021-3.011A.616.616,0,0,1-3426,13.2a.616.616,0,0,1,.342-.554l6.022-3.01-6.021-3.011A.617.617,0,0,1-3426,6.07a.615.615,0,0,1,.343-.554l10.9-5.452a.629.629,0,0,1,.553,0l10.9,5.451a.618.618,0,0,1,.342.554.617.617,0,0,1-.342.554l-6.021,3.011,6.021,3.01a.614.614,0,0,1,.342.554.616.616,0,0,1-.342.554l-6.021,3.011,6.021,3.01a.616.616,0,0,1,.342.554.616.616,0,0,1-.342.553l-10.9,5.452a.63.63,0,0,1-.277.065A.626.626,0,0,1-3414.754,26.334Zm-11.046-6.006a.42.42,0,0,0,.231.375l10.9,5.451a.414.414,0,0,0,.187.044.418.418,0,0,0,.188-.044l10.9-5.451a.422.422,0,0,0,.231-.375.422.422,0,0,1-.231.375l-10.9,5.451a.423.423,0,0,1-.375,0l-10.9-5.451a.42.42,0,0,1-.231-.375Zm1.8,0,9.517,4.759,9.519-4.759-5.744-2.873-3.5,1.75a.635.635,0,0,1-.553,0l-3.5-1.75Zm19.483,0-6.191-3.1-3.586,1.794a.423.423,0,0,1-.375,0l-3.587-1.794-6.191,3.1,6.191-3.1,3.587,1.794a.423.423,0,0,0,.375,0l3.586-1.794ZM-3424,13.2l9.517,4.76,9.519-4.76-5.744-2.872-3.5,1.749a.632.632,0,0,1-.553,0l-3.5-1.75Zm20.609.375-6.379,3.19,6.379-3.19a.42.42,0,0,0,.231-.375A.42.42,0,0,1-3403.386,13.574ZM-3425.8,13.2a.418.418,0,0,0,.231.375l6.379,3.19-6.379-3.19a.418.418,0,0,1-.231-.375Zm21.288,0-6.191-3.1-3.586,1.794a.423.423,0,0,1-.375,0l-3.587-1.794-6.191,3.1,6.191-3.1,3.587,1.794a.423.423,0,0,0,.375,0l3.586-1.794ZM-3424,6.07l9.517,4.759,9.519-4.759-9.519-4.759Zm20.609.375-6.379,3.19,6.379-3.19a.42.42,0,0,0,.231-.375A.42.42,0,0,1-3403.386,6.445ZM-3425.8,6.07a.418.418,0,0,0,.231.375l6.379,3.19-6.379-3.19a.418.418,0,0,1-.231-.375Zm21.288,0-9.966-4.982-9.965,4.982,9.965-4.982Z" transform="translate(3426 0)"/>
</svg>
