<svg xmlns="http://www.w3.org/2000/svg" width="13.31" height="17.746" viewBox="0 0 13.31 17.746"><g transform="translate(-72.419)"><g transform="translate(72.419)"><path d="M153.713,7.3V4.436a4.436,4.436,0,1,0-8.873,0V7.3h2.218V4.436a2.218,2.218,0,1,1,4.436,0V7.3Z" transform="translate(-142.622)"/><path d="M72.419,255.684v5.546a2.218,2.218,0,0,0,2.218,2.218H83.51a2.218,2.218,0,0,0,2.218-2.218v-5.546a2.218,2.218,0,0,0-2.218-2.218H74.637A2.218,2.218,0,0,0,72.419,255.684Zm6.655,1.109a1.109,1.109,0,0,1,1.109,1.109,1.093,1.093,0,0,1-.555.939v1.834a.555.555,0,0,1-1.109,0v-1.834a1.093,1.093,0,0,1-.555-.939A1.109,1.109,0,0,1,79.074,256.793Z" transform="translate(-72.419 -245.702)"/></g></g></svg>