<svg xmlns="http://www.w3.org/2000/svg" width="17.36" height="17.36" viewBox="0 0 17.36 17.36">
    <g id="download-icon" transform="translate(0.5 0.5)">
        <path id="Path_7178" data-name="Path 7178"
              d="M240.511,11.588a.511.511,0,0,1-.511-.511V.511a.511.511,0,1,1,1.022,0V11.077A.511.511,0,0,1,240.511,11.588Zm0,0"
              transform="translate(-232.331)" fill="#fff" stroke="#fff" stroke-width="1"/>
        <path id="Path_7179" data-name="Path 7179"
              d="M157.91,249.066a.507.507,0,0,1-.361-.15l-2.727-2.727a.511.511,0,0,1,.723-.723l2.365,2.365,2.365-2.365a.511.511,0,0,1,.723.723l-2.727,2.727A.512.512,0,0,1,157.91,249.066Zm0,0"
              transform="translate(-149.73 -237.478)" fill="#fff" stroke="#fff" stroke-width="1"/>
        <path id="Path_7180" data-name="Path 7180"
              d="M14.485,346.785H1.875A1.876,1.876,0,0,1,0,344.911v-3.067a.511.511,0,1,1,1.022,0v3.067a.853.853,0,0,0,.852.852H14.485a.853.853,0,0,0,.852-.852v-3.067a.511.511,0,1,1,1.022,0v3.067A1.876,1.876,0,0,1,14.485,346.785Zm0,0"
              transform="translate(0 -330.425)" fill="#fff" stroke="#fff" stroke-width="1"/>
    </g>
</svg>
