<svg xmlns="http://www.w3.org/2000/svg" width="19.034" height="13.508" viewBox="0 0 19.034 13.508"><path d="M26.727,90.131H26.42V87.675a1.23,1.23,0,0,0-1.228-1.228V81.228A1.23,1.23,0,0,0,23.964,80H11.07a1.23,1.23,0,0,0-1.228,1.228v5.219a1.23,1.23,0,0,0-1.228,1.228v2.456H8.307A.307.307,0,0,0,8,90.438v1.228a.307.307,0,0,0,.307.307h.307V93.2a.307.307,0,0,0,.307.307h.921a.307.307,0,0,0,.3-.247l.258-1.288H24.633l.258,1.288a.307.307,0,0,0,.3.247h.921a.307.307,0,0,0,.307-.307V91.973h.307a.307.307,0,0,0,.307-.307V90.438A.307.307,0,0,0,26.727,90.131Zm-16.271-8.9a.615.615,0,0,1,.614-.614H23.964a.615.615,0,0,1,.614.614v5.219h-.614V85.219a1.23,1.23,0,0,0-1.228-1.228H19.052a1.23,1.23,0,0,0-1.228,1.228v1.228H17.21V85.219a1.23,1.23,0,0,0-1.228-1.228H12.3a1.23,1.23,0,0,0-1.228,1.228v1.228h-.614ZM23.35,85.219v1.228H18.438V85.219a.615.615,0,0,1,.614-.614h3.684A.615.615,0,0,1,23.35,85.219Zm-6.754,0v1.228H11.684V85.219a.615.615,0,0,1,.614-.614h3.684A.615.615,0,0,1,16.6,85.219ZM9.228,87.675a.615.615,0,0,1,.614-.614h15.35a.615.615,0,0,1,.614.614v2.456H9.228Zm.362,5.219H9.228v-.921h.546Zm16.216,0h-.362l-.184-.921h.546Zm.614-1.535H8.614v-.614H26.42Z" transform="translate(-8 -80)"/></svg>