<svg xmlns="http://www.w3.org/2000/svg" width="23.663" height="26" viewBox="0 0 23.663 26">
  <g id="building-icon" transform="translate(-23.011)">
    <g id="Group_1621" data-name="Group 1621" transform="translate(23.011)">
      <g id="Group_1620" data-name="Group 1620" transform="translate(0)">
        <path id="Path_7206" data-name="Path 7206" d="M46.236,25.124h-.73V2.191a.438.438,0,0,0-.438-.438h-8.18a.438.438,0,0,0-.438.438v1.9h-.876v-1.9a.438.438,0,0,0-.438-.438h-1.9V.438a.438.438,0,1,0-.876,0V1.753h-1.9a.438.438,0,0,0-.438.438v1.9H28.708a.438.438,0,0,0-.438.438V8.18H24.618a.438.438,0,0,0-.438.438V25.124h-.73a.438.438,0,0,0,0,.876H46.236a.438.438,0,1,0,0-.876ZM30.9,2.629h3.8V4.09H30.9ZM29.438,25.124h-.292v-.73a.438.438,0,1,0-.876,0v.73h-.292V23.663h1.461Zm2.921-11.247V25.124H30.314v-1.9a.438.438,0,0,0-.438-.438H27.539a.438.438,0,0,0-.438.438v1.9H25.056V9.056h7.3Zm.438-5.7H29.146V4.966h7.3v8.472H33.236V11.978H34.55a.438.438,0,0,0,0-.876H33.236V9.64H34.55a.438.438,0,0,0,0-.876H33.236V8.618A.438.438,0,0,0,32.8,8.18Zm7.742,16.944h-7.3V14.315h7.3Zm4.09,0H41.415V13.292a.438.438,0,1,0-.876,0v.146h-.876v-.146a.438.438,0,1,0-.876,0v.146H37.326V2.629h7.3V25.124Z" transform="translate(-23.011)"/>
        <path id="Path_7207" data-name="Path 7207" d="M253.562,308.205a.438.438,0,0,0,.438-.438v-8.18a.438.438,0,0,0-.876,0v8.18A.438.438,0,0,0,253.562,308.205Z" transform="translate(-241.439 -283.958)"/>
        <path id="Path_7208" data-name="Path 7208" d="M288.079,308.205a.438.438,0,0,0,.438-.438v-8.18a.438.438,0,0,0-.876,0v8.18A.438.438,0,0,0,288.079,308.205Z" transform="translate(-274.203 -283.958)"/>
        <path id="Path_7209" data-name="Path 7209" d="M322.6,308.205a.438.438,0,0,0,.438-.438v-8.18a.438.438,0,0,0-.876,0v8.18A.438.438,0,0,0,322.6,308.205Z" transform="translate(-306.966 -283.958)"/>
        <path id="Path_7210" data-name="Path 7210" d="M334.1,82a.438.438,0,0,0,.438-.438v-.584a.438.438,0,1,0-.876,0v.584A.438.438,0,0,0,334.1,82Z" transform="translate(-317.888 -76.45)"/>
        <path id="Path_7211" data-name="Path 7211" d="M368.618,82a.438.438,0,0,0,.438-.438v-.584a.438.438,0,0,0-.876,0v.584A.438.438,0,0,0,368.618,82Z" transform="translate(-350.652 -76.45)"/>
        <path id="Path_7212" data-name="Path 7212" d="M403.135,82a.438.438,0,0,0,.438-.438v-.584a.438.438,0,1,0-.876,0v.584A.438.438,0,0,0,403.135,82Z" transform="translate(-383.416 -76.45)"/>
        <path id="Path_7213" data-name="Path 7213" d="M334.1,139.528a.438.438,0,0,0,.438-.438v-.584a.438.438,0,1,0-.876,0v.584A.438.438,0,0,0,334.1,139.528Z" transform="translate(-317.888 -131.056)"/>
        <path id="Path_7214" data-name="Path 7214" d="M368.618,139.528a.438.438,0,0,0,.438-.438v-.584a.438.438,0,0,0-.876,0v.584A.438.438,0,0,0,368.618,139.528Z" transform="translate(-350.652 -131.056)"/>
        <path id="Path_7215" data-name="Path 7215" d="M403.135,139.528a.438.438,0,0,0,.438-.438v-.584a.438.438,0,1,0-.876,0v.584A.438.438,0,0,0,403.135,139.528Z" transform="translate(-383.416 -131.056)"/>
        <path id="Path_7216" data-name="Path 7216" d="M334.1,197.057a.438.438,0,0,0,.438-.438v-.584a.438.438,0,1,0-.876,0v.584A.438.438,0,0,0,334.1,197.057Z" transform="translate(-317.888 -185.663)"/>
        <path id="Path_7217" data-name="Path 7217" d="M368.618,197.057a.438.438,0,0,0,.438-.438v-.584a.438.438,0,0,0-.876,0v.584A.438.438,0,0,0,368.618,197.057Z" transform="translate(-350.652 -185.663)"/>
        <path id="Path_7218" data-name="Path 7218" d="M403.135,197.057a.438.438,0,0,0,.438-.438v-.584a.438.438,0,1,0-.876,0v.584A.438.438,0,0,0,403.135,197.057Z" transform="translate(-383.416 -185.663)"/>
        <path id="Path_7219" data-name="Path 7219" d="M92.483,220.068a.438.438,0,0,0,.438-.438v-.584a.438.438,0,1,0-.876,0v.584A.438.438,0,0,0,92.483,220.068Z" transform="translate(-88.539 -207.506)"/>
        <path id="Path_7220" data-name="Path 7220" d="M127,220.068a.438.438,0,0,0,.438-.438v-.584a.438.438,0,1,0-.876,0v.584A.438.438,0,0,0,127,220.068Z" transform="translate(-121.304 -207.506)"/>
        <path id="Path_7221" data-name="Path 7221" d="M161.517,220.068a.438.438,0,0,0,.438-.438v-.584a.438.438,0,1,0-.876,0v.584A.438.438,0,0,0,161.517,220.068Z" transform="translate(-154.068 -207.506)"/>
        <path id="Path_7222" data-name="Path 7222" d="M92.483,277.6a.438.438,0,0,0,.438-.438v-.584a.438.438,0,0,0-.876,0v.584A.438.438,0,0,0,92.483,277.6Z" transform="translate(-88.539 -262.113)"/>
        <path id="Path_7223" data-name="Path 7223" d="M127,277.6a.438.438,0,0,0,.438-.438v-.584a.438.438,0,0,0-.876,0v.584A.438.438,0,0,0,127,277.6Z" transform="translate(-121.304 -262.113)"/>
        <path id="Path_7224" data-name="Path 7224" d="M161.517,277.6a.438.438,0,0,0,.438-.438v-.584a.438.438,0,0,0-.876,0v.584A.438.438,0,0,0,161.517,277.6Z" transform="translate(-154.068 -262.113)"/>
        <path id="Path_7225" data-name="Path 7225" d="M92.483,335.124a.438.438,0,0,0,.438-.438V334.1a.438.438,0,0,0-.876,0v.584A.438.438,0,0,0,92.483,335.124Z" transform="translate(-88.539 -316.719)"/>
        <path id="Path_7226" data-name="Path 7226" d="M127,335.124a.438.438,0,0,0,.438-.438V334.1a.438.438,0,0,0-.876,0v.584A.438.438,0,0,0,127,335.124Z" transform="translate(-121.304 -316.719)"/>
        <path id="Path_7227" data-name="Path 7227" d="M161.517,335.124a.438.438,0,0,0,.438-.438V334.1a.438.438,0,0,0-.876,0v.584A.438.438,0,0,0,161.517,335.124Z" transform="translate(-154.068 -316.719)"/>
        <path id="Path_7228" data-name="Path 7228" d="M92.483,392.652a.438.438,0,0,0,.438-.438v-.584a.438.438,0,1,0-.876,0v.584A.438.438,0,0,0,92.483,392.652Z" transform="translate(-88.539 -371.326)"/>
        <path id="Path_7229" data-name="Path 7229" d="M127,392.652a.438.438,0,0,0,.438-.438v-.584a.438.438,0,1,0-.876,0v.584A.438.438,0,0,0,127,392.652Z" transform="translate(-121.304 -371.326)"/>
        <path id="Path_7230" data-name="Path 7230" d="M161.517,392.652a.438.438,0,0,0,.438-.438v-.584a.438.438,0,1,0-.876,0v.584A.438.438,0,0,0,161.517,392.652Z" transform="translate(-154.068 -371.326)"/>
        <path id="Path_7231" data-name="Path 7231" d="M403.135,254.585a.438.438,0,0,0,.438-.438v-.584a.438.438,0,1,0-.876,0v.584A.438.438,0,0,0,403.135,254.585Z" transform="translate(-383.416 -240.27)"/>
        <path id="Path_7232" data-name="Path 7232" d="M403.135,312.113a.438.438,0,0,0,.438-.438v-.584a.438.438,0,0,0-.876,0v.584A.438.438,0,0,0,403.135,312.113Z" transform="translate(-383.416 -294.877)"/>
        <path id="Path_7233" data-name="Path 7233" d="M403.135,369.641a.438.438,0,0,0,.438-.438v-.584a.438.438,0,1,0-.876,0v.584A.438.438,0,0,0,403.135,369.641Z" transform="translate(-383.416 -349.483)"/>
        <path id="Path_7234" data-name="Path 7234" d="M403.135,427.169a.438.438,0,0,0,.438-.438v-.584a.438.438,0,1,0-.876,0v.584A.438.438,0,0,0,403.135,427.169Z" transform="translate(-383.416 -404.09)"/>
        <path id="Path_7235" data-name="Path 7235" d="M176.966,127a.438.438,0,0,0-.438-.438h-3.506a.438.438,0,1,0,0,.876h3.506A.438.438,0,0,0,176.966,127Z" transform="translate(-164.989 -120.135)"/>
      </g>
    </g>
  </g>
</svg>
