<svg xmlns="http://www.w3.org/2000/svg" width="28" height="28" viewBox="0 0 28 28">
  <g id="icon-to-top" transform="translate(-1309.897 -647.897)">
    <circle id="Ellipse_71" data-name="Ellipse 71" cx="14" cy="14" r="14" transform="translate(1309.897 647.897)" opacity="0.224"/>
    <g id="layer1" transform="translate(1319.024 652.946)">
      <path id="path9421" d="M6.514,290.916a.82.82,0,0,0-.568.242l-4.1,4.1A.82.82,0,1,0,3,296.416L5.7,293.723l.007,14.4a.82.82,0,0,0,1.64,0l-.007-14.413,2.7,2.709a.822.822,0,0,0,1.162-1.161l-4.1-4.1A.82.82,0,0,0,6.514,290.916Z" transform="translate(-1.582 -290.916)" fill="#fff"/>
    </g>
  </g>
</svg>
